<svg xmlns="http://www.w3.org/2000/svg" width="40" height="17" fill="none" viewBox="0 0 40 17">
    <path fill="#fff" d="M13.796 1.34L1 14l1.422 1.407 12.796-12.66-1.422-1.406zM36.796 1.34L24 14l1.422 1.407 12.796-12.66-1.422-1.406z"/>
    <path fill="#fff" d="M14.422 1.593L13 3l12.796 12.66 1.422-1.407-12.796-12.66zM3 17c1.66 0 3-1.344 3-3.008S4.644 11 3 11s-3 1.344-3 3.008S1.34 17 3 17z"/>
    <path fill="#fff" d="M14 6c1.66 0 3-1.344 3-3.008S15.644 0 14 0s-3 1.344-3 2.992S12.34 6 14 6zM37 6c1.66 0 3-1.34 3-3s-1.34-3-3-3-3 1.34-3 3 1.356 3 3 3zM25 17c1.66 0 3-1.34 3-3s-1.34-3-3-3-3 1.34-3 3 1.356 3 3 3z"/>
</svg>
