<svg xmlns="http://www.w3.org/2000/svg" width="28" height="27" fill="none" viewBox="0 0 28 27">
    <path fill="#fff" fill-rule="evenodd" d="M5.5 10.07c1.42 0 2.57-1.15 2.57-2.57S6.92 4.93 5.5 4.93 2.93 6.08 2.93 7.5s1.15 2.57 2.57 2.57zm0 2.93c3.038 0 5.5-2.462 5.5-5.5S8.538 2 5.5 2 0 4.462 0 7.5 2.462 13 5.5 13zM22.5 22.07c1.42 0 2.57-1.15 2.57-2.57s-1.15-2.57-2.57-2.57-2.57 1.15-2.57 2.57 1.15 2.57 2.57 2.57zm0 2.93c3.038 0 5.5-2.462 5.5-5.5S25.538 14 22.5 14 17 16.462 17 19.5s2.462 5.5 5.5 5.5z" clip-rule="evenodd"/>
    <path fill="#fff" d="M20.041 0H24L9.09 27H5L20.041 0z"/>
</svg>
