<svg xmlns="http://www.w3.org/2000/svg" width="30" height="33" fill="none" viewBox="0 0 30 33">
    <path fill="#fff" fill-opacity=".5" d="M3.56 21.489L0 25l7.051 7.09 3.56-3.51-7.051-7.091z"/>
    <path fill="#fff" d="M29.387 15.398c-1.234-1.034-2.016.273-2.016.273l-5.543 5.157-8.235-.19 5.052-1.606s1.035-.381.942-1.47c-.106-1.089-1.512-.993-1.512-.993L7.36 18.61 5 21.55 11.233 28h9.746l8.633-10.492c0 .013 1.008-1.062-.225-2.11zM15.5 7C17.441 7 19 5.427 19 3.5 19 1.559 17.427 0 15.5 0S12 1.573 12 3.5 13.573 7 15.5 7zM15.493 7C11.896 7 9 9.69 9 13h13c0-3.31-2.91-6-6.507-6z"/>
</svg>
