<svg xmlns="http://www.w3.org/2000/svg" width="30" height="29" fill="none" viewBox="0 0 30 29">
    <path fill="#fff" d="M23.943 18.645h-7.496V14.98h7.496v3.666zm0 6.468h-7.496v-3.666h7.496v3.666zm-10.405-6.468H6.042V14.98h7.496v3.666zm0 6.468H6.042v-3.666h7.496v3.666zM0 7v15.224C0 25.964 3.103 29 6.927 29h16.146C26.898 29 30 25.964 30 22.224V7H0z"/>
    <path fill="#fff" fill-opacity=".5" d="M8.871 1.215L6 4l9.331 9.051 2.872-2.785L8.87 1.215z"/>
    <path fill="#fff" fill-opacity=".5" d="M21.331.949L12 10l2.871 2.785 9.332-9.051L21.33.949z"/>
</svg>
