<svg width="29" height="24" viewBox="0 0 29 24" fill="none" xmlns="http://www.w3.org/2000/svg">
<path d="M14.7693 16.7616C14.2621 16.2629 13.6281 16.2629 13.1294 16.7616C12.749 17.142 12.3601 17.5224 11.9882 17.9112C11.8867 18.0211 11.8022 18.038 11.6754 17.9704C11.4302 17.8351 11.1597 17.7252 10.923 17.5815C9.80719 16.8799 8.87731 15.9839 8.05733 14.9695C7.65157 14.4708 7.28807 13.9298 7.02601 13.3212C6.97529 13.2029 6.98375 13.1183 7.08519 13.0169C7.46559 12.645 7.846 12.2646 8.21795 11.8842C8.74206 11.3516 8.74206 10.7346 8.21795 10.202C7.91362 9.89771 7.61775 9.60185 7.31343 9.29754C7.00065 8.98478 6.69633 8.67202 6.38356 8.36771C5.87635 7.87743 5.24234 7.87743 4.74359 8.36771C4.35473 8.7481 3.98278 9.13694 3.59393 9.50887C3.23043 9.8639 3.04445 10.2866 3.01064 10.7768C2.95147 11.5799 3.1459 12.3406 3.42486 13.0761C3.99124 14.6061 4.85349 15.9585 5.90171 17.2011C7.31343 18.8833 9.00412 20.2189 10.9822 21.1741C11.8698 21.6052 12.7912 21.9349 13.7972 21.994C14.4904 22.0363 15.0906 21.8588 15.564 21.3178C15.8937 20.9458 16.2656 20.6162 16.6122 20.2612C17.1279 19.7371 17.1279 19.1031 16.6206 18.5959C16.0035 17.9873 15.3864 17.3702 14.7693 16.7616Z" fill="#004C6A"/>
<path d="M16.7919 2.62235C16.8485 3.22489 16.6706 3.7553 16.2581 4.21358C15.8537 4.66337 15.3563 4.88826 14.766 4.88826H14.402C14.1028 4.88826 13.8076 4.81612 13.5164 4.67185L13.9046 8.84724L12.7764 8.97454L12 0.623762L13.1282 0.496464L13.3344 2.73692C13.4153 3.28854 13.7105 3.56436 14.22 3.56436H14.766C15.0409 3.56436 15.2633 3.48798 15.4332 3.33522C15.6111 3.18246 15.6879 2.98727 15.6637 2.74965L15.4574 0.623762L16.5857 0.483734L16.7919 2.62235Z" fill="#00A695"/>
<path d="M24 3.58982V4.91372H19.6812C19.4467 4.91372 19.2162 4.86704 18.9897 4.77369L19.3658 8.8727L18.2376 9L17.6796 2.87695C17.6715 2.85149 17.6674 2.81754 17.6674 2.77511L17.4733 0.649222L18.6015 0.521924L18.8078 2.81329C18.8887 3.33098 19.1798 3.58982 19.6812 3.58982H19.8632C19.6934 3.21641 19.6084 2.83876 19.6084 2.45686C19.6084 1.76945 19.8349 1.18812 20.2878 0.712871C20.7407 0.237624 21.2866 0 21.9255 0C22.1277 0 22.3906 0.0551627 22.7141 0.165488C23.0376 0.275813 23.3045 0.381895 23.5147 0.483734C23.7331 0.585573 23.8504 0.644979 23.8666 0.661952L23.3692 1.8331C23.3611 1.8331 23.2398 1.78642 23.0052 1.69307C22.7788 1.59123 22.5645 1.50636 22.3623 1.43847C22.1682 1.37058 22.0226 1.33239 21.9255 1.3239C21.5939 1.28147 21.3109 1.37907 21.0763 1.61669C20.8499 1.84583 20.7367 2.12588 20.7367 2.45686C20.7367 2.77935 20.8337 3.05092 21.0278 3.27157C21.23 3.48373 21.4767 3.58982 21.7678 3.58982H24Z" fill="#00A695"/>
<path d="M27.8701 13L29 13.4217L26.0649 21H24.9351L22 13.4217L23.1299 13L25.4935 19.1566L27.8701 13Z" fill="#00A695"/>
<path d="M17.7134 14.2937L23.3386 8.13187L24.6004 8.74263L18.9753 14.9045L17.7134 14.2937Z" fill="#00A695"/>
</svg>
