<svg width="24" height="24" viewBox="0 0 24 24" fill="none" xmlns="http://www.w3.org/2000/svg">
<path d="M12 24C18.6157 24 24 18.6345 24 11.9879C24 5.36558 18.6398 0 12 0C5.36016 0 0 5.38974 0 12.0121C0 18.6344 5.36016 24 12 24Z" fill="#43D06A"/>
<path d="M8.19505 13.0156C8.19505 12.809 8.19505 12.6283 8.19505 12.4218C8.19505 12.3959 8.19505 12.3959 8.17162 12.3701C8.12476 12.3701 8.07789 12.3701 8.03103 12.3443C7.98416 12.3443 7.91386 12.3185 7.867 12.2927C7.82013 12.2668 7.82013 12.2152 7.84357 12.1894C7.867 12.1636 7.91386 12.1377 7.96073 12.1119C8.05446 12.0861 8.17162 12.0603 8.26535 12.0603C8.40594 12.0603 8.56997 12.0345 8.71057 12.0345C9.57757 12.0345 10.4446 12.0345 11.3116 12.0345C11.4522 12.0345 11.5693 12.0345 11.7099 12.0345C12.2723 12.0345 12.8347 12.0345 13.397 12.0345C13.4673 12.0345 13.5376 12.0344 13.5845 12.0086C13.8188 11.9828 14.0063 11.8537 14.1469 11.6472C14.2406 11.5181 14.3343 11.3631 14.3812 11.2082C14.3812 11.1824 14.4046 11.1824 14.4046 11.1566C14.4046 11.1824 14.4281 11.1824 14.4281 11.2082C14.4515 11.2857 14.4984 11.3631 14.5218 11.4406C14.6155 11.6213 14.7327 11.8021 14.8733 11.9312C15.1779 12.2152 15.5294 12.3185 15.9043 12.2668C16.0683 12.241 16.2324 12.1636 16.3495 12.0603C16.4667 11.957 16.537 11.8279 16.6073 11.6988C16.7479 11.4148 16.8182 11.105 16.8182 10.7693C16.8182 10.5369 16.8182 10.3304 16.7713 10.098C16.7245 9.7107 16.6073 9.34921 16.4667 9.01355C16.3964 8.83281 16.3027 8.67789 16.1855 8.52297C16.0683 8.36805 15.9043 8.21314 15.7403 8.13568C15.5294 8.0324 15.3185 7.98076 15.0842 8.00658C14.8967 8.0324 14.7327 8.08405 14.5687 8.21315C14.2172 8.49717 14.0297 8.88447 14.0063 9.34922C14.0063 9.4525 14.0063 9.55576 14.0063 9.65904C14.0063 9.7365 13.9829 9.83978 13.9829 9.91724C13.936 10.0722 13.8423 10.1755 13.7017 10.2271C13.6314 10.2529 13.5611 10.2529 13.5142 10.2529C12.8112 10.2529 12.1083 10.2529 11.4053 10.2529C11.2413 10.2529 11.0772 10.2529 10.9132 10.2529C10.7023 10.2529 10.5149 10.2529 10.304 10.2529C10.1634 10.2529 9.99935 10.2787 9.85875 10.2787C9.76502 10.2787 9.67129 10.3045 9.57757 10.3045C9.4604 10.3304 9.36667 10.3562 9.24951 10.382C9.08548 10.4078 8.94489 10.4853 8.78086 10.5369C8.5934 10.6144 8.40594 10.7176 8.21849 10.8467C7.96073 11.0275 7.70297 11.2599 7.49208 11.4922C7.35149 11.6471 7.23432 11.8279 7.14059 12.0086C7.09373 12.1119 7.04686 12.2152 7.02343 12.3185C7 12.4218 7 12.525 7 12.6541C7 12.809 7.04686 12.964 7.16403 13.0931C7.28119 13.2222 7.39835 13.2996 7.53895 13.3513C7.65611 13.4029 7.7967 13.4287 7.91386 13.4287C7.98416 13.4287 8.05446 13.4287 8.12476 13.4545H8.14819C8.14819 13.4287 8.14819 13.4287 8.14819 13.4029C8.14819 13.3512 8.14819 13.2996 8.14819 13.248C8.19505 13.1705 8.19505 13.0931 8.19505 13.0156ZM14.967 9.06521C15.0139 8.91029 15.1076 8.83283 15.2716 8.80701C15.3888 8.78119 15.506 8.83281 15.6231 8.91027C15.7169 8.98773 15.7872 9.06518 15.8575 9.16846C15.9512 9.32338 16.0449 9.50412 16.1152 9.68486C16.1855 9.89141 16.2558 10.0722 16.2792 10.2787C16.3027 10.4078 16.3261 10.5369 16.3027 10.666C16.3027 10.7435 16.2792 10.8209 16.2558 10.8726C16.2089 11.0017 16.1152 11.0533 15.9746 11.0791C15.7872 11.0791 15.6231 11.0275 15.4825 10.8726C15.3419 10.7435 15.2482 10.5886 15.1545 10.4078C15.0373 10.1496 14.967 9.89142 14.9202 9.63323C14.8967 9.52995 14.8967 9.4525 14.8967 9.34922C14.9202 9.27176 14.9202 9.16849 14.967 9.06521Z" fill="white"/>
<path d="M8.14824 9.4465C8.14824 9.62537 8.16738 9.78435 8.16738 9.96321C8.16738 10.0228 8.16738 10.0825 8.16738 10.1619V10.1818C8.4736 9.98308 8.81809 9.84397 9.18173 9.78435C9.18173 9.76447 9.18173 9.74461 9.18173 9.74461C9.18173 9.60549 9.18173 9.44649 9.18173 9.30738C9.18173 8.96952 9.18173 8.61181 9.18173 8.27396C9.18173 8.21434 9.18173 8.15471 9.16259 8.09509C9.14345 8.0156 9.08604 7.97584 9.00948 8.01559C8.95206 8.03547 8.89465 8.07521 8.85637 8.11496C8.60757 8.29382 8.3779 8.4727 8.1291 8.63169C8.10996 8.65157 8.09082 8.67143 8.09082 8.6913C8.10996 8.85029 8.10996 8.98941 8.10996 9.1484C8.1291 9.24777 8.1291 9.34714 8.14824 9.4465Z" fill="white"/>
<path d="M17.8112 11.3244C17.738 11.3244 17.6892 11.2984 17.6161 11.2984C17.4941 11.2984 17.3965 11.2984 17.2745 11.2984C17.0549 11.2984 16.8353 11.2984 16.6158 11.2984C14.908 11.2984 13.2245 11.2984 11.5167 11.2984C11.1264 11.2984 10.7116 11.2984 10.3213 11.2984C10.2969 11.2984 10.2969 11.2984 10.2725 11.2984V12.3634C10.2969 12.3634 10.3213 12.3634 10.3213 12.3634C10.8336 12.3634 11.3215 12.3634 11.8339 12.3634C12.4438 12.3634 13.0538 12.3634 13.6393 12.3634C14.2736 12.3634 14.908 12.3634 15.5423 12.3634C15.9326 12.3634 16.3474 12.3634 16.7378 12.3634C16.9573 12.3634 17.1769 12.3634 17.3965 12.3634C17.4453 12.3634 17.4697 12.3634 17.4941 12.3114C17.5185 12.2854 17.5429 12.2335 17.5673 12.2075C17.7136 11.9737 17.8112 11.714 17.8844 11.4543C17.8844 11.4283 17.9088 11.4023 17.9088 11.3504C17.9088 11.2984 17.9088 11.2984 17.86 11.2725C17.8356 11.3244 17.8356 11.3244 17.8112 11.3244Z" fill="white"/>
<path d="M16.8025 13.8953C16.7552 13.8953 16.7078 13.8721 16.6842 13.8721C16.6132 13.8721 16.5658 13.8721 16.4948 13.8721C16.3764 13.8489 16.2817 13.8489 16.1634 13.8257C15.903 13.7792 15.6189 13.7328 15.3585 13.6864C15.1691 13.64 14.9797 13.5935 14.7903 13.5471C14.1748 13.3382 13.583 13.1525 12.9675 12.9436C12.7544 12.874 12.5177 12.8044 12.3046 12.7347C12.2573 12.7115 12.1863 12.7115 12.1389 12.7115C12.0442 12.7115 11.9495 12.7347 11.8549 12.758C11.5944 12.8508 11.3814 12.99 11.2157 13.1989C11.05 13.3846 10.9079 13.5935 10.7659 13.8024C10.6949 13.9185 10.6475 14.0346 10.6002 14.1506C10.5765 14.2435 10.5765 14.3363 10.6002 14.4291C10.6475 14.522 10.7422 14.5916 10.8606 14.5684C10.9789 14.5452 11.0736 14.4756 11.1683 14.3827C11.263 14.2667 11.3577 14.1738 11.4998 14.1042C11.6181 14.0577 11.7128 14.0345 11.8312 14.0578C11.9495 14.081 12.0442 14.1042 12.1626 14.1506C12.3046 14.197 12.4467 14.2434 12.565 14.2899C12.9201 14.4059 13.2752 14.5452 13.6303 14.6612C13.6303 14.6612 13.654 14.6612 13.654 14.6844C13.6303 14.6844 13.6303 14.7076 13.6067 14.7076C13.3463 14.8005 13.1095 14.8934 12.8255 14.963C12.5177 15.0326 12.2336 15.1022 11.9259 15.1255C11.7128 15.1487 11.4761 15.1719 11.263 15.1719C10.9316 15.1719 10.5765 15.1719 10.2451 15.1719C10.1267 15.1719 9.98467 15.1719 9.86631 15.1719C9.81896 15.1719 9.74794 15.1719 9.70059 15.1487C9.55856 15.1254 9.46386 15.0558 9.39284 14.9165C9.3455 14.8237 9.32182 14.7309 9.32182 14.638C9.32182 14.3827 9.32182 14.1042 9.32182 13.8489C9.32182 13.3382 9.32182 12.8044 9.32182 12.2937C9.32182 11.9688 9.32182 11.6438 9.32182 11.3189C9.32182 11.2957 9.32182 11.2957 9.32182 11.2725C9.20346 11.2725 8.13817 11.2725 8.09082 11.2725C8.09082 11.2957 8.09082 11.2957 8.09082 11.3189C8.09082 11.5974 8.09082 11.8527 8.09082 12.1313C8.09082 12.5723 8.09082 13.0133 8.09082 13.4311C8.09082 13.7328 8.09082 14.0577 8.09082 14.3595C8.09082 14.6148 8.09082 14.8933 8.11449 15.1487C8.13817 15.3111 8.16184 15.4736 8.18551 15.6129C8.23286 15.8218 8.30388 16.0075 8.39857 16.1699C8.54061 16.4253 8.75367 16.5877 9.06142 16.6806C9.20346 16.727 9.3455 16.727 9.51121 16.727C10.0557 16.727 10.5765 16.727 11.121 16.727C11.2394 16.727 11.3577 16.727 11.4761 16.7038C11.6655 16.6806 11.8549 16.6574 12.0206 16.611C12.3757 16.5181 12.7308 16.4021 13.0622 16.2628C13.1805 16.2164 13.2989 16.1699 13.4173 16.1003C13.8197 15.8914 14.1985 15.6593 14.6009 15.4736C14.7903 15.3808 15.0034 15.2879 15.2164 15.2183C15.3585 15.1719 15.4768 15.1487 15.6189 15.1487C15.6899 15.1487 15.7846 15.1487 15.8556 15.1487C15.9266 15.1487 15.9977 15.1487 16.0687 15.1255C16.116 15.1255 16.1397 15.1023 16.1634 15.079C16.2107 15.0326 16.2581 14.963 16.3054 14.9165C16.4474 14.6844 16.5658 14.4755 16.6842 14.2202C16.7315 14.1042 16.7789 14.0113 16.7789 13.8953C16.8262 13.9185 16.8262 13.9185 16.8025 13.8953Z" fill="white"/>
</svg>