<svg xmlns="http://www.w3.org/2000/svg" width="80" height="80" fill="none" viewBox="0 0 80 80">
    <circle cx="40" cy="40" r="40" fill="#083647"/>
    <g clip-path="url(#clip0)">
        <path fill="#004C6A" d="M26.956 45.905l-4.557 4.494 9.026 9.076 4.556-4.494-9.025-9.076z"/>
        <path fill="#5BC4BF" d="M57.653 39.666c-1.5-1.21-2.45.318-2.45.318l-6.741 6.03-10.014-.222 6.144-1.878s1.258-.445 1.145-1.718c-.13-1.273-1.839-1.162-1.839-1.162L30.87 43.421 28 46.858l7.579 7.542H47.43l10.497-12.268c0 .016 1.226-1.24-.274-2.466z"/>
        <path fill="#004C6A" d="M41.6 28.8c2.218 0 4-1.798 4-4 0-2.219-1.798-4-4-4-2.203 0-4 1.797-4 4 0 2.202 1.797 4 4 4z"/>
        <path fill="#004C6A" d="M41.192 28.8c-4.206 0-7.592 3.585-7.592 8h15.2c0-4.415-3.403-8-7.608-8z"/>
    </g>
    <defs>
        <clipPath id="clip0">
            <path fill="#fff" d="M0 0H38.4V38.4H0z" transform="translate(20.7998 20.7998)"/>
        </clipPath>
    </defs>
</svg>
