<svg width="140" height="80" viewBox="0 0 64 30" fill="none" xmlns="http://www.w3.org/2000/svg">
                                <path d="M49.0211 1.61116C49.0211 1.61116 48.8609 1.50375 48.7542 1.71857C48.7542 1.71857 48.167 2.41674 47.6866 2.36303C47.2062 2.25562 45.7649 2.36303 45.2311 2.41674C44.6973 2.52415 44.1102 2.20192 44.3771 1.93339C44.3771 1.93339 44.3771 1.82598 44.8575 1.66486C45.3379 1.50375 45.6582 1.23522 45.6582 1.23522C45.6582 1.23522 46.4055 0.859285 46.7791 0.483348C47.0994 0.107411 46.8325 0 46.8325 0C46.8325 0 46.619 0 44.3771 0.429642C44.3771 0.429642 43.6831 0.483348 43.096 1.18152C42.9892 1.28893 42.8824 1.39634 42.8291 1.50375C42.7223 1.61116 42.6156 1.71857 42.5622 1.77227C42.2419 1.87969 41.7615 1.9871 41.6547 1.9871C40.2669 2.09451 38.879 2.25562 37.5445 2.52415C35.4094 2.90009 33.3276 3.49084 31.4593 4.51124C29.7511 5.42423 28.0964 5.47794 26.3349 5.0483C24.947 4.72607 23.6125 4.35013 22.2247 4.0279C20.7834 3.70566 18.8084 3.16861 17.3138 3.16861C15.8192 3.16861 14.2712 4.29642 14.4847 6.39093C14.5914 7.41133 14.6982 7.35762 15.1252 8.59285C16.2996 11.2781 17.901 13.5874 19.7158 15.6819C19.876 15.8968 20.1429 15.8968 20.6767 15.7356C20.7301 15.6819 20.2496 15.1986 20.1429 15.0912C20.0361 14.9838 19.8226 14.769 19.7692 14.6615C19.5023 14.3393 19.2888 13.9634 19.0219 13.6411C18.9152 13.5337 18.4881 12.8893 18.3814 12.7819C18.1145 12.3522 17.4739 11.2244 17.4205 11.0096C16.8867 9.93548 15.4989 7.41133 15.7124 5.90758C15.9793 4.72607 16.9935 4.0816 18.2212 4.29642C20.6767 4.72607 23.0787 5.31682 25.4808 5.90758C26.5484 6.17611 27.616 6.28352 28.6836 6.44463C29.6978 6.60575 30.6586 6.33722 31.566 5.90758C33.1674 5.15571 34.8222 4.51124 36.5303 4.0279C37.8114 3.65196 39.1459 3.43714 40.427 3.27602C40.6405 3.27602 41.3878 3.22232 41.6013 3.16861C42.1885 3.0075 42.6156 3.22232 42.8291 3.75937C42.9358 3.97419 43.0426 4.18901 43.2027 4.29642C43.523 4.56495 43.4696 4.77977 43.1493 5.0483C41.4412 6.65946 40.6939 8.80767 40.2135 11.0633C40.1067 11.8689 40.1601 12.6744 40.1067 13.4263C39.306 13.1041 38.6121 12.7282 37.9182 12.4059C36.3702 11.654 34.9823 10.5262 33.1674 10.3651C31.3525 10.204 29.5376 9.77436 27.7227 9.39843C26.9754 9.23731 25.1072 8.75396 24.947 8.70026C23.1321 8.21691 21.424 7.57245 19.6625 6.87428C19.0753 6.65946 18.4881 6.76687 18.0611 7.19651C17.6874 7.57245 17.5273 8.05579 17.6874 8.80767C17.7942 9.39843 17.8476 9.93548 19.1287 12.4059C19.449 13.0504 19.7692 13.5337 20.1963 14.0708C20.4632 14.393 21.2638 15.5208 21.424 15.6282C22.0112 15.8431 22.0645 15.6282 22.0645 15.6282C22.0112 15.5208 21.9044 15.4134 21.851 15.306C20.1963 13.4263 19.0219 11.2781 18.4347 8.86137C18.328 8.43173 18.2746 8.00209 18.6483 7.67986C18.9152 7.41133 19.2354 7.41133 19.5557 7.46503C19.6625 7.51874 19.7158 7.51874 19.8226 7.57245C24.1463 9.39843 27.8829 10.3114 32.0998 11.1707C32.9539 11.3318 33.8614 11.3318 34.6087 11.8689C35.4094 12.4596 36.2634 12.8356 37.1175 13.3726C38.0783 13.9634 39.1993 14.2856 40.0533 15.0375C40.427 15.3597 40.8007 15.5208 41.2277 15.5745C42.7223 15.7894 44.2169 15.3597 45.7649 15.4134C45.9784 15.4134 46.3521 15.3597 46.2987 14.9838C46.2453 14.6078 45.9251 14.6615 45.7115 14.6078C45.2311 14.5004 44.6973 14.5004 44.2169 14.4467C43.2561 14.3393 42.402 13.856 41.4412 13.856C41.1209 13.856 41.1209 13.7486 41.1209 13.48C41.1209 12.4596 41.2277 11.4392 41.548 10.4188C41.975 9.07619 42.6156 7.84097 43.6831 6.87428C43.7899 6.76687 44.0034 6.49834 44.1636 6.44463C44.2169 6.49834 44.3237 6.55204 44.3237 6.55204C44.4304 6.65946 44.9109 6.76687 45.071 6.76687C45.3913 6.76687 45.6048 6.65946 45.8183 6.39093C46.0318 6.17611 45.9251 5.90758 45.9251 5.90758C45.8717 5.63906 45.8183 5.20941 45.8717 4.99459C46.0852 4.0816 45.8183 3.49084 45.8183 3.49084C46.0852 3.43714 46.4055 3.32973 46.8325 3.27602C48.0069 3.0612 48.594 2.90009 48.9677 2.09451C49.0211 2.30933 49.288 1.71857 49.0211 1.61116Z" fill="#0A4356"/>
                                <path d="M20.9929 22.7719C20.066 22.7719 18.9754 22.7719 18.7028 22.7157C18.6482 22.9965 18.5392 23.3894 18.4301 23.6701C18.6482 23.6701 18.9209 23.6701 19.5752 23.6701C18.9209 24.7368 18.4847 25.4105 17.9939 26.028C17.6122 26.5333 16.6307 26.5333 16.0855 26.5333H15.8674C16.1945 26.1403 16.4126 25.8596 16.4126 24.7368C16.4126 23.4456 15.8674 22.7719 14.6678 22.7719H13.6318C12.3231 24.1193 12.0505 24.6807 12.0505 25.5228C12.0505 25.9158 12.1595 26.2526 12.3231 26.5333H11.7233C10.4692 26.5333 10.142 26.3087 10.142 25.2982C10.142 23.8386 10.142 23.3333 10.142 22.9965C9.86939 23.1087 9.43318 23.221 9.10602 23.221C9.16054 23.614 9.16054 24.7368 9.16054 25.8596C8.6698 26.2526 7.74284 26.4772 6.37966 26.4772H6.10703C4.6348 26.4772 4.36216 26.0842 4.30764 25.1298C4.25311 23.6701 4.19858 22.8842 4.14405 22.3789C3.81689 22.6035 3.4352 22.7719 3.10804 22.828C3.21709 23.221 3.32615 24.007 3.48973 25.6912C2.99899 26.1965 2.18108 26.421 1.36318 26.421C0.92696 26.421 0.708849 26.3087 0.708849 26.028V25.2982C0.490741 25.4105 0.218108 25.5228 0 25.5228C0 25.7473 0 26.1965 0 26.5333C0 27.207 0.272634 27.6561 1.14507 27.6561C1.96297 27.6561 2.99899 27.3193 3.2171 26.9263C3.32615 26.7579 3.4352 26.4772 3.54426 26.3087C3.65331 27.207 4.14406 27.6561 5.94345 27.6561H6.16155C7.52473 27.6 8.45169 27.4315 8.77885 26.9824C8.88791 26.814 9.05149 26.5894 9.21507 26.3649C9.32413 27.207 9.8694 27.6561 11.4507 27.6561H15.6493C17.067 27.6561 17.6668 27.3754 17.9939 26.9263C18.1575 26.7017 18.3211 26.421 18.5937 26.0842C18.5937 27.0947 19.3571 27.7122 20.5022 27.7122C20.9384 27.7122 21.3201 27.6561 21.8108 27.6561C22.247 26.814 22.8468 26.4772 22.8468 24.6807C22.9559 23.614 22.1925 22.7719 20.9929 22.7719ZM15.104 26.6456C13.5227 26.6456 12.9774 26.1403 12.9774 25.1298C12.9774 24.7368 13.0865 24.3438 13.4137 23.8386H14.2861C15.104 23.8386 15.3766 24.3438 15.3766 25.1859C15.3766 26.028 15.3221 26.3087 15.104 26.6456ZM21.9199 26.5333C21.7018 26.5894 21.2655 26.5894 20.7748 26.5894C19.8478 26.5894 19.4662 26.1965 19.4662 25.6351C19.4662 25.2421 19.5752 24.9614 20.175 23.7824H20.6112C21.4837 23.7824 21.9744 24.5122 21.9744 25.4105C21.9744 26.028 21.9744 26.2526 21.9199 26.5333Z" fill="#26A596"/>
                                <path d="M40.3871 21.6174C40.3145 21.4057 40.3145 21.0671 40.3871 20.8555H38.8633C38.8633 21.1094 38.8633 21.4481 38.8633 21.6174H40.3871Z" fill="#0A4356"/>
                                <path d="M44.7673 20.0898C43.7099 20.7358 43.0258 21.1333 41.9062 21.7296V22.3756C43.1502 21.7296 43.8343 21.3818 44.9539 20.6861C44.8295 20.4377 44.8295 20.3383 44.7673 20.0898Z" fill="#0A4356"/>
                                <path d="M15.2347 21.6174C15.1622 21.4057 15.1622 21.0671 15.2347 20.8555H13.7109C13.7835 21.1094 13.7835 21.4481 13.7109 21.6174H15.2347Z" fill="#26A596"/>
                                <path d="M51.2911 23.4466C51.4739 24.3248 51.6568 25.9777 51.7177 26.9075C51.413 27.5274 50.3158 28.0439 49.5234 28.3538C49.8282 28.5605 50.2549 28.922 50.4377 29.232C50.8644 29.0253 51.1692 28.8187 51.413 28.6121C52.2053 27.9923 52.5711 27.1141 52.5711 25.9261C52.5711 25.0479 52.5101 23.8082 52.5101 23.1367C52.0834 23.2917 51.6568 23.395 51.2911 23.4466Z" fill="#0A4356"/>
                                <path d="M61.8368 23.2142H57.8336C59.1504 22.5564 60.0459 22.0083 61.0994 21.3506C60.9413 21.0765 60.836 20.6928 60.836 20.3639C60.2566 20.8572 58.3603 22.1728 56.7274 23.2142C56.7274 23.5979 56.6748 23.872 56.6221 24.2557H61.5208C62.4689 24.2557 63.1537 24.8586 63.1537 25.8452C63.1537 26.0097 63.1537 26.2289 63.101 26.4482C62.8376 26.503 62.6269 26.503 62.3635 26.503H55.832C55.4106 26.503 55.1999 26.3386 55.1999 25.9001V20.0898C54.8839 20.2543 54.4625 20.4187 54.0938 20.4735C54.1991 21.2957 54.3044 23.1594 54.3571 26.4482C54.3571 27.2704 54.7258 27.7089 55.4633 27.7089C61.152 27.7089 60.6253 27.6541 62.3109 27.6541C62.5742 27.6541 62.7323 27.6541 62.9956 27.7089C63.417 26.8867 63.9964 26.4482 63.9964 25.2971C64.0491 24.146 63.101 23.2142 61.8368 23.2142Z" fill="#0A4356"/>
                                <path d="M47.2694 23.7369H43.0968C44.5242 23.0165 45.4027 22.5178 46.5007 21.8529C46.336 21.5758 46.2262 21.1879 46.2262 20.8555C45.6223 21.3542 43.6458 22.684 41.9438 23.7369C41.9438 24.1247 41.8889 24.4018 41.834 24.7897H46.9399C47.9282 24.7897 48.6419 25.3992 48.6419 26.3966C48.6419 26.5628 48.6419 26.7845 48.587 27.0061C48.3125 27.0615 48.0929 27.0615 47.8184 27.0615H42.1634C40.736 27.0615 40.187 26.7845 40.1321 25.7317C40.0771 25.0113 40.0771 24.2356 40.0222 23.4598C39.6379 23.626 39.3085 23.7369 38.9242 23.7923C39.0889 24.7343 39.2536 26.5074 39.3085 27.5048C39.034 28.1698 38.0458 28.7239 37.332 29.0563C37.6065 29.278 37.9909 29.6659 38.1556 29.9983C38.5399 29.7767 38.8144 29.555 39.034 29.3334C39.5281 28.8901 39.8026 28.336 39.9673 27.6711C40.2419 28.1698 40.8458 28.3914 41.8889 28.3914C46.5007 28.3914 46.0066 28.336 47.7635 28.336C48.038 28.336 48.2027 28.336 48.4772 28.3914C48.9164 27.5602 49.5203 27.1169 49.5203 25.9533C49.5752 24.6788 48.587 23.7369 47.2694 23.7369Z" fill="#0A4356"/>
                                <path d="M30.6944 24.2135H31.6011C31.6578 23.8734 31.7711 23.4201 31.9978 23.1367H30.9777C30.5243 23.1367 29.8443 23.1367 29.2209 23.1934C28.6542 23.9301 27.6908 24.7802 27.6908 26.0269C27.6908 26.9903 28.3142 27.557 29.5609 27.557H30.9777C30.8644 28.4638 29.9576 28.8038 28.7109 28.8038H27.8041C26.5007 28.8038 25.934 28.1804 25.934 27.217C25.934 26.8203 25.9907 26.4236 26.104 25.6869C25.8773 25.8002 25.5373 25.8569 25.3106 25.9136C25.3106 26.4236 25.1406 27.1037 25.1406 27.7837C25.1406 29.1438 25.8773 29.9939 27.4641 29.9939H28.4842C30.8077 29.9939 31.7711 28.5771 31.7711 27.217C31.7711 26.6503 31.6011 26.3669 30.9777 26.3669H29.901C29.0509 26.3669 28.5975 26.1403 28.5975 25.5169C28.5975 25.1769 28.7675 24.5535 28.9942 24.2701C29.2776 24.2135 29.6176 24.2135 30.6944 24.2135Z" fill="#0A4356"/>
                                <path d="M36.1753 27.7089C36.5381 27.5445 36.8284 27.4896 37.2638 27.4348C37.2638 21.4054 37.3363 20.3639 37.3363 20.0898C36.9009 20.2543 36.2479 20.4187 35.8125 20.4735C35.9576 21.2409 36.1753 23.4883 36.1753 27.7089Z" fill="#0A4356"/>
                                <path d="M33.7715 23.4466C33.9544 24.3248 34.1372 25.9777 34.1982 26.9075C33.8934 27.5274 32.7963 28.0439 32.0039 28.3538C32.3087 28.5605 32.7353 28.922 32.9182 29.232C33.3449 29.0253 33.6496 28.8187 33.8934 28.6121C34.6858 27.9923 35.0515 27.1141 35.0515 25.9261C35.0515 25.0479 34.9906 23.8082 34.9906 23.1367C34.5639 23.2917 34.1982 23.395 33.7715 23.4466Z" fill="#0A4356"/>
                                <path d="M4.57422 29.2305C4.64678 29.4844 4.64678 29.8231 4.57422 29.9924H6.09803C6.02547 29.7807 6.02547 29.4421 6.09803 29.2305H4.57422Z" fill="#26A596"/>
                                <path d="M6.09375 29.2305C6.16631 29.4844 6.16631 29.8231 6.09375 29.9924H7.61756C7.545 29.7807 7.545 29.4421 7.61756 29.2305H6.09375Z" fill="#26A596"/>
                                </svg>