<svg width="24" height="24" viewBox="0 0 24 24" fill="none" xmlns="http://www.w3.org/2000/svg">
<circle cx="12" cy="12" r="12" fill="#472D8C"/>
<path d="M11.6378 10.739C11.3578 11.0462 11.3578 11.5427 11.6378 11.8499L12.1436 12.4043L13.1535 11.2934L12.6476 10.739C12.3676 10.4319 12.3676 9.93532 12.6476 9.62819L13.1535 9.07178L12.1436 7.96094L11.1338 9.07178L12.1436 10.1826L11.6378 10.739Z" fill="white"/>
<path d="M6.95622 12.4045L7.9019 11.3937L6.95622 10.3848L6.48246 10.8892C6.22069 11.1673 6.22069 11.62 6.48246 11.8981L6.95622 12.4045Z" fill="white"/>
<path d="M7.90334 12.4048H7.09474V14.8284H6.28613V15.6363V16.4442H7.90117C8.34774 16.4442 8.70978 16.0826 8.70978 15.6363V13.2127C8.70978 12.7664 8.34991 12.4048 7.90334 12.4048Z" fill="white"/>
<path d="M17.9972 11.5217C17.9972 11.5117 17.9951 11.5037 17.993 11.4937C17.9909 11.4777 17.9888 11.4637 17.9846 11.4477C17.9825 11.4357 17.9804 11.4257 17.9762 11.4137C17.9741 11.4017 17.9699 11.3897 17.9657 11.3777C17.9615 11.3657 17.9573 11.3537 17.9531 11.3397C17.9489 11.3297 17.9468 11.3217 17.9426 11.3117C17.9363 11.2977 17.9321 11.2837 17.9258 11.2698C17.9237 11.2658 17.9216 11.2618 17.9195 11.2558C17.8922 11.1998 17.8585 11.1478 17.8186 11.0978C17.8144 11.0918 17.8102 11.0858 17.806 11.0818C17.7829 11.0558 17.7577 11.0318 17.7325 11.0078C17.7262 11.0019 17.7199 10.9959 17.7136 10.9919C17.6863 10.9699 17.6589 10.9479 17.6295 10.9279C17.6001 10.9079 17.5665 10.8899 17.5329 10.8739C17.5266 10.8719 17.5203 10.8679 17.514 10.8659C17.4804 10.8499 17.4468 10.8379 17.411 10.8259C17.3564 10.8099 17.2997 10.7979 17.2409 10.7919C17.2283 10.7899 17.2178 10.7919 17.2051 10.7899C17.1883 10.7879 17.1715 10.7879 17.1547 10.7879H14.621C14.1546 10.7879 13.7764 11.1498 13.7764 11.5956V13.211C13.7764 12.7652 13.3983 12.4033 12.9319 12.4033H10.3981V7.55713H8.70898V8.36483V13.213C8.70898 13.6589 9.08716 14.0207 9.55356 14.0207H11.2427H12.0873C11.6209 14.0207 11.2427 14.3826 11.2427 14.8284V16.4438H14.6189C15.0853 16.4438 15.4635 16.082 15.4635 15.6361V14.8284V14.0207C15.4635 14.4666 15.8417 14.8284 16.3081 14.8284H17.9972V11.5976C18.0014 11.5716 17.9993 11.5476 17.9972 11.5217ZM13.7785 14.8304H12.934V14.0227H13.7785V14.8304ZM16.3122 13.215H15.4677V12.4073H16.3122V13.215Z" fill="white"/>
</svg>