<svg width="24" height="24" viewBox="0 0 24 24" fill="none" xmlns="http://www.w3.org/2000/svg">
<path d="M12 24C18.6157 24 24 18.6345 24 11.9879C24 5.36558 18.6398 0 12 0C5.38431 0 0 5.36558 0 11.9879C0 18.6345 5.36016 24 12 24Z" fill="#2ED9C6"/>
<path d="M12.9011 16.5289C12.7826 16.3118 12.6403 16.1189 12.4268 15.9742C12.2371 15.8294 12.0237 15.7088 11.7628 15.6365C11.5968 15.5882 11.4308 15.54 11.2411 15.54C10.6719 15.54 9.79442 15.54 8.53751 15.54C8.46636 15.54 8.41893 15.4918 8.41893 15.4194C8.41893 15.3471 8.46636 15.2988 8.53751 15.2988H10.8379C10.8616 15.2988 10.909 15.2988 10.9328 15.2988C12.1185 15.2988 13.0671 14.3099 13.0671 13.104C13.0671 11.8981 12.1185 10.9092 10.9328 10.9092C9.7707 10.9092 8.8458 11.8257 8.79837 13.0075H10.6719C10.7193 12.8869 10.8142 12.8146 10.9328 12.8146C11.0988 12.8146 11.2173 12.9352 11.2173 13.104C11.2173 13.2728 11.0988 13.3934 10.9328 13.3934H6.73513C6.64027 13.3934 6.54541 13.4899 6.54541 13.5864V14.2858C6.54541 14.6235 6.54541 14.7923 6.54541 14.8164C6.54541 15.54 7.20945 16.6012 8.65609 16.6012C9.72328 16.6012 10.7905 16.6012 11.8577 16.6012C12.3557 16.6012 12.8774 16.8183 12.9486 17.3007C12.9723 17.5419 13.0909 17.4454 13.0909 17.3731C13.0671 17.2766 13.0671 17.1801 13.0434 17.0836C13.0909 16.8666 13.0197 16.6977 12.9011 16.5289Z" fill="white"/>
<path d="M16.3643 12.0002C16.9729 12.0002 17.4548 11.5181 17.4548 10.9093C17.4548 10.3004 16.9729 9.81836 16.3643 9.81836C15.7557 9.81836 15.2739 10.3004 15.2739 10.9093C15.2485 11.5181 15.7557 12.0002 16.3643 12.0002Z" fill="white"/>
<path d="M17.2933 13.3306H14.8261C14.8036 13.3306 14.7588 13.3306 14.7363 13.3306C14.198 13.3306 13.7719 12.8635 13.7719 12.2735C13.7719 12.2489 13.7719 12.1997 13.7719 12.1751V6.74209C13.7719 6.64376 13.6822 6.54541 13.5925 6.54541H12.1794C12.0897 6.54541 12 6.64376 12 6.74209V10.6509C12.8299 11.0689 13.413 11.9785 13.413 13.0356C13.413 13.9697 12.9645 14.8056 12.2692 15.2727H17.2708C17.3605 15.2727 17.4502 15.1744 17.4502 15.076V13.5272C17.4727 13.4043 17.4054 13.3306 17.2933 13.3306Z" fill="white"/>
</svg>