<svg width="24" height="24" viewBox="0 0 24 24" fill="none" xmlns="http://www.w3.org/2000/svg">
<path d="M12 24C18.6157 24 24 18.6344 24 11.9879C24 5.36555 18.6398 0 12 0C5.38431 0 0 5.36555 0 11.9879C0 18.6344 5.36016 24 12 24Z" fill="#00A1E8"/>
<path d="M8.39662 13.697C8.97484 13.697 9.58351 13.4793 10.0096 13.0711C10.0096 13.0711 10.7704 12.3635 10.8312 12.3091C10.953 12.2002 11.1051 12.1458 11.2877 12.1458V10.5945C10.7095 10.5945 10.1008 10.8123 9.67479 11.2205C9.67479 11.2205 8.91398 11.9281 8.85311 11.9825C8.73138 12.0914 8.57923 12.1458 8.42706 12.1458V10.9756V10.5945V10.5129C8.42706 10.5129 8.42706 9.42432 7.24019 9.42432H4.68386V10.9756H6.93586C7.05759 11.0028 6.875 11.1116 6.7837 11.2205C6.7837 11.2205 5.80986 12.1458 4.92732 12.1458H4.1665V13.697H5.07948C6.60111 13.697 7.90971 12.3363 7.97058 12.3091C8.09231 12.2002 8.24446 12.1458 8.39662 12.1458V13.697Z" fill="white"/>
<path d="M19.8334 8H18.4092V13.697H19.8334V8Z" fill="white"/>
<path d="M10.5758 15.1211C10.1802 15.1211 9.86369 15.4403 9.86369 15.8087C9.86369 15.4158 9.54719 15.1211 9.15156 15.1211C8.75594 15.1211 8.43945 15.4403 8.43945 15.8332C8.43945 16.2261 8.75594 16.5453 9.15156 16.5453C9.54719 16.5453 9.86369 16.2261 9.86369 15.8578C9.86369 16.2507 10.1802 16.5453 10.5758 16.5453C10.9714 16.5453 11.2879 16.2261 11.2879 15.8332C11.2879 15.4403 10.9714 15.1211 10.5758 15.1211Z" fill="white"/>
<path d="M13.5419 10.059C13.5419 10.059 11.8851 11.7966 11.695 11.9866C11.5864 12.0952 11.4506 12.1495 11.2876 12.1495V13.697C11.8037 13.697 12.3469 13.4798 12.7271 13.0726C12.7271 13.0726 14.5197 11.1993 14.574 11.145C14.7913 10.9278 15.1444 10.9278 15.3617 11.145C15.579 11.3622 15.579 11.7423 15.3617 11.9595C15.2531 12.0681 15.1173 12.1224 14.9543 12.1224H13.8135V13.6699H14.9543C15.4704 13.6699 16.0136 13.4527 16.3938 13.0454C17.1815 12.2038 17.1815 10.8463 16.3938 10.0318C15.6333 9.21735 14.3568 9.21734 13.5419 10.059Z" fill="white"/>
</svg>