<svg xmlns="http://www.w3.org/2000/svg" width="80" height="80" fill="none" viewBox="0 0 80 80">
    <circle cx="40" cy="40" r="40" fill="#083647"/>
    <path fill="#004C6A" fill-rule="evenodd" d="M30 36.005c1.549 0 2.805-1.256 2.805-2.805 0-1.549-1.256-2.804-2.805-2.804-1.549 0-2.805 1.255-2.805 2.804 0 1.55 1.256 2.805 2.805 2.805zm0 3.195c3.314 0 6-2.686 6-6s-2.686-6-6-6-6 2.687-6 6c0 3.314 2.686 6 6 6zM49.2 50.404c1.55 0 2.805-1.256 2.805-2.804 0-1.55-1.256-2.805-2.805-2.805-1.549 0-2.804 1.256-2.804 2.805 0 1.548 1.255 2.804 2.804 2.804zm0 3.196c3.314 0 6-2.687 6-6 0-3.314-2.686-6-6-6s-6 2.686-6 6c0 3.313 2.686 6 6 6z" clip-rule="evenodd"/>
    <path fill="#5BC4BF" d="M46.067 24.8H50.4L34.078 56H29.6l16.467-31.2z"/>
</svg>
