<svg width="24" height="24" viewBox="0 0 24 24" fill="none" xmlns="http://www.w3.org/2000/svg">
<circle cx="12" cy="12" r="12" fill="#0EA44A"/>
<path d="M9.91087 12.3426V11.2356C9.91087 10.5445 9.43568 10.0298 8.69033 10.0298C7.97875 10.0298 7.47461 10.5116 7.47461 11.2191C7.47461 11.9172 7.95945 12.4131 8.69033 12.4131C8.97978 12.4131 9.1824 12.3238 9.29095 12.1452C9.27889 12.5542 9.08109 12.801 8.6855 12.8104V13.2781C9.50322 13.2805 9.91087 12.9655 9.91087 12.3426ZM8.68791 11.8866C8.34298 11.8866 8.10659 11.5881 8.10659 11.2215C8.10659 10.8642 8.32609 10.5657 8.66138 10.5657C9.0232 10.5657 9.25959 10.8383 9.25959 11.2473C9.25959 11.5928 9.02803 11.8866 8.68791 11.8866Z" fill="white"/>
<path d="M15.189 10.0298H14.377V10.4358H15.189V10.0298Z" fill="white"/>
<path d="M14.7828 9.21777H13.9707V9.62382H14.7828V9.21777Z" fill="white"/>
<path d="M14.3775 10.0298H13.5654V10.4358H14.3775V10.0298Z" fill="white"/>
<path d="M4.63184 10.8423V12.6051L5.37798 11.9305L7.7726 14.0906H8.69227L5.83906 11.5145L6.5852 10.8423H4.63184Z" fill="white"/>
<path d="M5.03509 9.08278C5.03509 9.08278 5.03509 8.67674 5.42359 8.67674H18.8637C18.8637 8.67674 19.2522 8.67674 19.2522 9.08278V9.62417H19.6554V8.40604C19.6554 8.40604 19.6554 8 19.2669 8H5.02033C5.02033 8 4.63184 8 4.63184 8.40604V9.62417H5.03509V9.08278V9.08278Z" fill="white"/>
<path d="M19.2486 13.2778H18.4365V13.6839H19.2486V13.2778Z" fill="white"/>
<path d="M18.4371 13.2778H17.625V13.6839H18.4371V13.2778Z" fill="white"/>
<path d="M19.2497 14.6317C19.2497 15.0378 18.8612 15.0378 18.8612 15.0378H5.42113C5.03263 15.0378 5.03263 14.6317 5.03263 14.6317V14.0903H4.63184V15.3085C4.63184 15.7145 5.02033 15.7145 5.02033 15.7145H19.2669C19.6554 15.7145 19.6554 15.3085 19.6554 15.3085V14.0903H19.2522V14.6317H19.2497Z" fill="white"/>
<path d="M19.0164 10.8423V12.0455C19.0164 12.4278 18.8574 12.6201 18.5368 12.6201H17.8233C17.9077 12.5356 17.9535 12.3222 17.9535 11.9821V10.8423H17.3147V12.0408C17.3147 12.4278 17.1557 12.6224 16.8351 12.6224H16.1457C16.2349 12.4395 16.2831 12.2214 16.2831 11.9751V10.9947H15.6444V12.0501C15.6444 12.4324 15.4853 12.6248 15.1647 12.6248H14.6778C14.7622 12.5403 14.808 12.3269 14.808 11.9868V10.9947H14.1692V12.0431C14.1692 12.4301 14.0102 12.6248 13.6896 12.6248H13.2292V12.5943C13.2967 12.4958 13.3304 12.2964 13.3304 11.9868V10.9947H12.6917V12.0079C12.6917 12.4207 12.5326 12.6248 12.212 12.6248H11.3274V10.847H10.6959V12.8452C10.6959 13.3471 10.4356 13.5887 9.91016 13.5887V14.0906C10.6766 14.0906 11.1925 13.781 11.2889 13.2228H18.5585C19.202 13.2228 19.6552 12.7303 19.6552 11.9774V10.847H19.0164V10.8423Z" fill="white"/>
<path d="M18.8433 14.0903H18.0312V14.4964H18.8433V14.0903Z" fill="white"/>
<path d="M16.0015 13.2778H15.1895V13.6839H16.0015V13.2778Z" fill="white"/>
<path d="M17.2193 13.2778H16.4072V13.6839H17.2193V13.2778Z" fill="white"/>
</svg>