<svg width="14" height="14" viewBox="0 0 14 14" fill="none" xmlns="http://www.w3.org/2000/svg">
                        <path d="M11.7693 8.76159C11.2621 8.26286 10.6281 8.26286 10.1294 8.76159C9.74898 9.14198 9.36012 9.52236 8.98817 9.9112C8.88673 10.0211 8.8022 10.038 8.6754 9.97037C8.43025 9.83512 8.15974 9.72524 7.92304 9.58153C6.80719 8.87993 5.87731 7.98391 5.05733 6.96954C4.65157 6.47081 4.28807 5.92982 4.02601 5.3212C3.97529 5.20285 3.98375 5.11832 4.08519 5.01689C4.46559 4.64495 4.846 4.26456 5.21795 3.88418C5.74206 3.35163 5.74206 2.73456 5.21795 2.20202C4.91362 1.89771 4.61775 1.60185 4.31343 1.29754C4.00065 0.98478 3.69633 0.672018 3.38356 0.367708C2.87635 -0.122569 2.24234 -0.122569 1.74359 0.367708C1.35473 0.748095 0.982784 1.13694 0.593927 1.50887C0.23043 1.8639 0.0444546 2.28655 0.0106409 2.77683C-0.048533 3.57987 0.145896 4.34064 0.424858 5.07606C0.991238 6.60606 1.85349 7.95855 2.90171 9.20115C4.31343 10.8833 6.00412 12.2189 7.98222 13.1741C8.86982 13.6052 9.79125 13.9349 10.7972 13.994C11.4904 14.0363 12.0906 13.8588 12.564 13.3178C12.8937 12.9458 13.2656 12.6162 13.6122 12.2612C14.1279 11.7371 14.1279 11.1031 13.6206 10.5959C13.0035 9.98728 12.3864 9.37021 11.7693 8.76159Z" fill="#004C6A"></path>
                    </svg>